<svg id="visual" viewBox="0 0 960 540" width="960" height="540" xmlns="http://www.w3.org/2000/svg" xmlns:xlink="http://www.w3.org/1999/xlink" version="1.1"><g stroke-width="1" stroke-linejoin="bevel"><path d="M537.3 258L650 269L626 204Z" fill="#00101c" stroke="#00101c"></path><path d="M537.3 258L609 342L650 269Z" fill="#205a7a" stroke="#205a7a"></path><path d="M650 269L710.7 207L626 204Z" fill="#277297" stroke="#277297"></path><path d="M735.7 260L710.7 207L650 269Z" fill="#00101c" stroke="#00101c"></path><path d="M750.7 344L735.7 260L650 269Z" fill="#1d4e6b" stroke="#1d4e6b"></path><path d="M508.3 111L497.3 148L626 204Z" fill="#205a7a" stroke="#205a7a"></path><path d="M626 204L497.3 148L537.3 258Z" fill="#1d4e6b" stroke="#1d4e6b"></path><path d="M431.7 337L515.3 375L537.3 258Z" fill="#00101c" stroke="#00101c"></path><path d="M537.3 258L515.3 375L609 342Z" fill="#0c2435" stroke="#0c2435"></path><path d="M497.3 148L443.7 188L537.3 258Z" fill="#246688" stroke="#246688"></path><path d="M612 63L508.3 111L626 204Z" fill="#19435d" stroke="#19435d"></path><path d="M497.3 148L402.7 57L443.7 188Z" fill="#1d4e6b" stroke="#1d4e6b"></path><path d="M443.7 188L418.7 281L537.3 258Z" fill="#15384f" stroke="#15384f"></path><path d="M632 479L750.7 344L609 342Z" fill="#297ea6" stroke="#297ea6"></path><path d="M609 342L750.7 344L650 269Z" fill="#1d4e6b" stroke="#1d4e6b"></path><path d="M418.7 281L431.7 337L537.3 258Z" fill="#297ea6" stroke="#297ea6"></path><path d="M710.7 207L612 63L626 204Z" fill="#1d4e6b" stroke="#1d4e6b"></path><path d="M431.7 337L516.3 432L515.3 375Z" fill="#00101c" stroke="#00101c"></path><path d="M515.3 375L516.3 432L609 342Z" fill="#297ea6" stroke="#297ea6"></path><path d="M860.3 205L758.7 92L710.7 207Z" fill="#277297" stroke="#277297"></path><path d="M710.7 207L758.7 92L612 63Z" fill="#205a7a" stroke="#205a7a"></path><path d="M860.3 205L710.7 207L735.7 260Z" fill="#00101c" stroke="#00101c"></path><path d="M516.3 432L632 479L609 342Z" fill="#19435d" stroke="#19435d"></path><path d="M813.3 396L845.3 250L750.7 344Z" fill="#1d4e6b" stroke="#1d4e6b"></path><path d="M750.7 344L845.3 250L735.7 260Z" fill="#081a28" stroke="#081a28"></path><path d="M768.7 452L813.3 396L750.7 344Z" fill="#246688" stroke="#246688"></path><path d="M402.7 57L337 204L443.7 188Z" fill="#0c2435" stroke="#0c2435"></path><path d="M443.7 188L337 204L418.7 281Z" fill="#1d4e6b" stroke="#1d4e6b"></path><path d="M418.7 281L354 358L431.7 337Z" fill="#205a7a" stroke="#205a7a"></path><path d="M284 282L354 358L418.7 281Z" fill="#246688" stroke="#246688"></path><path d="M431.7 337L434.7 486L516.3 432Z" fill="#297ea6" stroke="#297ea6"></path><path d="M632 479L768.7 452L750.7 344Z" fill="#205a7a" stroke="#205a7a"></path><path d="M758.7 92L678 0L612 63Z" fill="#246688" stroke="#246688"></path><path d="M612 63L497.3 0L508.3 111Z" fill="#15384f" stroke="#15384f"></path><path d="M508.3 111L402.7 57L497.3 148Z" fill="#00101c" stroke="#00101c"></path><path d="M960 241L860.3 205L845.3 250Z" fill="#0c2435" stroke="#0c2435"></path><path d="M845.3 250L860.3 205L735.7 260Z" fill="#112e42" stroke="#112e42"></path><path d="M758.7 92L783.7 0L678 0Z" fill="#277297" stroke="#277297"></path><path d="M678 0L497.3 0L612 63Z" fill="#00101c" stroke="#00101c"></path><path d="M497.3 0L402.7 57L508.3 111Z" fill="#0c2435" stroke="#0c2435"></path><path d="M354 358L434.7 486L431.7 337Z" fill="#0c2435" stroke="#0c2435"></path><path d="M516.3 432L563.3 540L632 479Z" fill="#1d4e6b" stroke="#1d4e6b"></path><path d="M860.3 205L835.3 93L758.7 92Z" fill="#081a28" stroke="#081a28"></path><path d="M434.7 486L563.3 540L516.3 432Z" fill="#1d4e6b" stroke="#1d4e6b"></path><path d="M632 479L674 540L768.7 452Z" fill="#00101c" stroke="#00101c"></path><path d="M563.3 540L674 540L632 479Z" fill="#19435d" stroke="#19435d"></path><path d="M337 204L284 282L418.7 281Z" fill="#00101c" stroke="#00101c"></path><path d="M323 540L422.7 540L434.7 486Z" fill="#081a28" stroke="#081a28"></path><path d="M247.3 212L284 282L337 204Z" fill="#112e42" stroke="#112e42"></path><path d="M835.3 93L783.7 0L758.7 92Z" fill="#1d4e6b" stroke="#1d4e6b"></path><path d="M768.7 452L824.3 469L813.3 396Z" fill="#277297" stroke="#277297"></path><path d="M960 362L960 241L845.3 250Z" fill="#246688" stroke="#246688"></path><path d="M776.7 540L824.3 469L768.7 452Z" fill="#297ea6" stroke="#297ea6"></path><path d="M388.7 0L331 67L402.7 57Z" fill="#0c2435" stroke="#0c2435"></path><path d="M402.7 57L331 67L337 204Z" fill="#277297" stroke="#277297"></path><path d="M497.3 0L388.7 0L402.7 57Z" fill="#19435d" stroke="#19435d"></path><path d="M290 438L434.7 486L354 358Z" fill="#081a28" stroke="#081a28"></path><path d="M434.7 486L422.7 540L563.3 540Z" fill="#112e42" stroke="#112e42"></path><path d="M674 540L776.7 540L768.7 452Z" fill="#00101c" stroke="#00101c"></path><path d="M331 67L247.3 212L337 204Z" fill="#112e42" stroke="#112e42"></path><path d="M204.3 394L354 358L284 282Z" fill="#081a28" stroke="#081a28"></path><path d="M204.3 394L290 438L354 358Z" fill="#00101c" stroke="#00101c"></path><path d="M960 109L858.3 0L835.3 93Z" fill="#297ea6" stroke="#297ea6"></path><path d="M835.3 93L858.3 0L783.7 0Z" fill="#19435d" stroke="#19435d"></path><path d="M960 362L845.3 250L813.3 396Z" fill="#297ea6" stroke="#297ea6"></path><path d="M860.3 205L960 109L835.3 93Z" fill="#0c2435" stroke="#0c2435"></path><path d="M960 241L960 216L860.3 205Z" fill="#19435d" stroke="#19435d"></path><path d="M388.7 0L325 0L331 67Z" fill="#205a7a" stroke="#205a7a"></path><path d="M331 67L184.3 111L247.3 212Z" fill="#277297" stroke="#277297"></path><path d="M960 473L813.3 396L824.3 469Z" fill="#19435d" stroke="#19435d"></path><path d="M960 473L960 362L813.3 396Z" fill="#00101c" stroke="#00101c"></path><path d="M960 216L960 109L860.3 205Z" fill="#246688" stroke="#246688"></path><path d="M290 438L323 540L434.7 486Z" fill="#277297" stroke="#277297"></path><path d="M776.7 540L869.3 540L824.3 469Z" fill="#205a7a" stroke="#205a7a"></path><path d="M247.3 212L198.3 303L284 282Z" fill="#15384f" stroke="#15384f"></path><path d="M290 438L252.3 483L323 540Z" fill="#297ea6" stroke="#297ea6"></path><path d="M139.7 270L198.3 303L247.3 212Z" fill="#0c2435" stroke="#0c2435"></path><path d="M204.3 394L252.3 483L290 438Z" fill="#081a28" stroke="#081a28"></path><path d="M198.3 303L204.3 394L284 282Z" fill="#15384f" stroke="#15384f"></path><path d="M869.3 540L960 473L824.3 469Z" fill="#19435d" stroke="#19435d"></path><path d="M194.3 0L184.3 111L331 67Z" fill="#081a28" stroke="#081a28"></path><path d="M111.7 395L122.7 413L204.3 394Z" fill="#00101c" stroke="#00101c"></path><path d="M960 109L960 0L858.3 0Z" fill="#277297" stroke="#277297"></path><path d="M252.3 483L249.3 540L323 540Z" fill="#081a28" stroke="#081a28"></path><path d="M95.7 540L249.3 540L252.3 483Z" fill="#00101c" stroke="#00101c"></path><path d="M139.7 181L139.7 270L247.3 212Z" fill="#205a7a" stroke="#205a7a"></path><path d="M204.3 394L122.7 413L252.3 483Z" fill="#112e42" stroke="#112e42"></path><path d="M184.3 111L139.7 181L247.3 212Z" fill="#00101c" stroke="#00101c"></path><path d="M869.3 540L960 540L960 473Z" fill="#00101c" stroke="#00101c"></path><path d="M325 0L194.3 0L331 67Z" fill="#081a28" stroke="#081a28"></path><path d="M184.3 111L70.7 120L139.7 181Z" fill="#297ea6" stroke="#297ea6"></path><path d="M111.7 395L198.3 303L139.7 270Z" fill="#00101c" stroke="#00101c"></path><path d="M111.7 395L204.3 394L198.3 303Z" fill="#0c2435" stroke="#0c2435"></path><path d="M0 290L111.7 395L139.7 270Z" fill="#246688" stroke="#246688"></path><path d="M79.7 0L70.7 120L184.3 111Z" fill="#1d4e6b" stroke="#1d4e6b"></path><path d="M0 189L0 290L139.7 270Z" fill="#246688" stroke="#246688"></path><path d="M194.3 0L79.7 0L184.3 111Z" fill="#297ea6" stroke="#297ea6"></path><path d="M0 422L122.7 413L111.7 395Z" fill="#1d4e6b" stroke="#1d4e6b"></path><path d="M0 422L95.7 540L122.7 413Z" fill="#246688" stroke="#246688"></path><path d="M122.7 413L95.7 540L252.3 483Z" fill="#277297" stroke="#277297"></path><path d="M0 189L139.7 270L139.7 181Z" fill="#0c2435" stroke="#0c2435"></path><path d="M0 189L139.7 181L70.7 120Z" fill="#15384f" stroke="#15384f"></path><path d="M0 79L0 189L70.7 120Z" fill="#19435d" stroke="#19435d"></path><path d="M0 290L0 370L111.7 395Z" fill="#277297" stroke="#277297"></path><path d="M0 370L0 422L111.7 395Z" fill="#1d4e6b" stroke="#1d4e6b"></path><path d="M79.7 0L0 79L70.7 120Z" fill="#15384f" stroke="#15384f"></path><path d="M79.7 0L0 0L0 79Z" fill="#277297" stroke="#277297"></path><path d="M0 422L0 540L95.7 540Z" fill="#19435d" stroke="#19435d"></path></g></svg>